# xmcd
#
# Track frame offsets: 
#        182
#        12607
#        27677
#        47970
#        59292
#        73860
#        88075
#        100677
#        119305
#        133310
#        144585
#        156387
#        170280
#        181337
#        196525
#        203517
#        217882
#        222405
#        234327
#        242970
#
# Disc length: 3438 seconds
#
# Revision: 23
# Processed by: cddbd v1.5.2PL0 Copyright (c) Steve Scherf et al.
# Submitted via: ExactAudioCopyFreeDBPlugin 1.0
#
DISCID=2a0d6c14
DTITLE=They Might Be Giants / John Henry
DYEAR=1994
DGENRE=Pop-Folk
TTITLE0=Subliminal
TTITLE1=Snail Shell
TTITLE2=Sleeping In The Flowers
TTITLE3=Unrelated Thing
TTITLE4=AKA Driver
TTITLE5=I Should Be Allowed To Think
TTITLE6=Extra Savoir-Faire
TTITLE7=Why Must I Be Sad?
TTITLE8=Spy
TTITLE9=O, Do Not Forsake Me
TTITLE10=No One Knows My Plan
TTITLE11=Dirt Bike
TTITLE12=Destination Moon
TTITLE13=Self Called Nowhere, A
TTITLE14=Meet James Ensor
TTITLE15=Thermostat
TTITLE16=Window
TTITLE17=Out Of Jail
TTITLE18=Stomp Box
TTITLE19=End Of The Tour, The
EXTD=They Might Be Giants (commonly abbreviated to TMBG) is an America
EXTD=n alternative rock duo consisting of John Linnell and John Flansb
EXTD=urgh, collectively known as "the two Johns" or "John and John".\n
EXTD=John Henry is both TMBG's longest record (twenty tracks clocking 
EXTD=it at about a full hour) and their most divisive. The hard-rockin
EXTD=g live sound, abundance of guitar solos, and unrelenting drearine
EXTD=ss was almost entirely unexpected by fans and panned by most main
EXTD=stream critics.\n
EXTT0=
EXTT1=
EXTT2=
EXTT3=
EXTT4=
EXTT5=
EXTT6=
EXTT7=
EXTT8=
EXTT9=
EXTT10=
EXTT11=
EXTT12=
EXTT13=
EXTT14=
EXTT15=
EXTT16=
EXTT17=
EXTT18=
EXTT19=
PLAYORDER=
.
